<svg width="18" height="14" viewBox="0 0 18 14" fill="none" xmlns="http://www.w3.org/2000/svg">
<path d="M10.8219 0.000510905C10.634 -0.00604952 10.449 0.0507094 10.2928 0.162781C10.1365 0.274852 10.017 0.436626 9.95092 0.625344C9.88484 0.814062 9.87556 1.02025 9.92439 1.21492C9.97321 1.40959 10.0777 1.58294 10.2231 1.71063L14.6707 5.79562H0.91891C0.799194 5.79281 0.680161 5.8156 0.568794 5.8628C0.457427 5.90999 0.35597 5.98063 0.270376 6.07044C0.184782 6.16026 0.116775 6.26747 0.0703455 6.38586C0.0239163 6.50425 0 6.63135 0 6.75978C0 6.88822 0.0239163 7.01543 0.0703455 7.13382C0.116775 7.25221 0.184782 7.35942 0.270376 7.44924C0.35597 7.53906 0.457427 7.60969 0.568794 7.65688C0.680161 7.70408 0.799194 7.72687 0.91891 7.72406H17.106C17.2888 7.72278 17.4669 7.66182 17.6165 7.54922C17.7661 7.43662 17.8802 7.2778 17.9435 7.09389C18.0069 6.90997 18.0164 6.70966 17.9709 6.51977C17.9255 6.32988 17.8271 6.15936 17.689 6.03096L11.3978 0.243526C11.2387 0.0919466 11.0346 0.00588115 10.8219 0.000510905Z" fill="#161616"/>
<path d="M17.1069 5.78858C17.2897 5.78986 17.4678 5.85082 17.6174 5.96342C17.767 6.07602 17.8811 6.23495 17.9444 6.41886C18.0078 6.60278 18.0173 6.80298 17.9718 6.99287C17.9264 7.18276 17.828 7.35328 17.6899 7.48168L11.3917 13.2691C11.3018 13.3514 11.1978 13.4137 11.0855 13.4528C10.9732 13.492 10.8548 13.507 10.7371 13.497C10.6194 13.487 10.5046 13.4523 10.3994 13.3948C10.2942 13.3373 10.2006 13.2581 10.1239 13.1618C10.0473 13.0655 9.98904 12.9538 9.95258 12.8334C9.91612 12.7129 9.90213 12.5859 9.91143 12.4597C9.92072 12.3334 9.95311 12.2103 10.0067 12.0974C10.0604 11.9846 10.1342 11.8842 10.224 11.802L14.6698 7.71702H0.919815C0.800037 7.71995 0.680922 7.69721 0.569468 7.65007C0.458014 7.60292 0.356466 7.53236 0.27079 7.44253C0.185116 7.3527 0.117041 7.24544 0.0705624 7.127C0.024086 7.00856 0.000143051 6.88136 0.000143051 6.75286C0.000143051 6.62435 0.024086 6.49704 0.0705624 6.3786C0.117041 6.26016 0.185116 6.1529 0.27079 6.06307C0.356466 5.97324 0.458014 5.90268 0.569468 5.85553C0.680922 5.80839 0.800037 5.78566 0.919815 5.78858H17.1069Z" fill="#161616"/>
</svg>
