<svg width="243" height="28" viewBox="0 0 243 28" fill="none" xmlns="http://www.w3.org/2000/svg">
<path fill-rule="evenodd" clip-rule="evenodd" d="M13.9505 6.88708C13.9505 9.36018 11.9457 11.365 9.47258 11.365C6.99947 11.365 4.99463 9.36018 4.99463 6.88708C4.99463 6.65319 5.01265 6.42308 5.04744 6.19817H1.37783C1.18759 6.19817 1.03337 6.35239 1.03337 6.54262V24.1099C1.03337 24.3002 1.18759 24.4544 1.37783 24.4544H5.04744C5.01265 24.2295 4.99463 23.9994 4.99463 23.7655C4.99463 21.2924 6.99947 19.2875 9.47258 19.2875C11.9457 19.2875 13.9505 21.2924 13.9505 23.7655C13.9505 23.9994 13.9325 24.2295 13.8977 24.4544H17.9118V18.9072C17.9118 17.7926 19.0451 17.3017 19.84 17.5921C20.0967 17.6858 20.3749 17.7375 20.6674 17.7375C21.9991 17.7375 23.0786 16.658 23.0786 15.3263C23.0786 13.9946 21.9991 12.9151 20.6674 12.9151C20.3749 12.9151 20.0967 12.9667 19.84 13.0605C19.0451 13.3509 17.9118 12.86 17.9118 11.7453V6.19817H13.8977C13.9325 6.42308 13.9505 6.65319 13.9505 6.88708ZM9.47258 10.3317C11.375 10.3317 12.9171 8.78947 12.9171 6.88708C12.9171 6.47182 12.8437 6.07372 12.709 5.70507C12.618 5.45589 12.7882 5.16479 13.0535 5.16479H18.9452V11.7453C18.9452 12.0106 19.2362 12.1809 19.4854 12.0899C19.8541 11.9552 20.2522 11.8817 20.6674 11.8817C22.5698 11.8817 24.112 13.4239 24.112 15.3263C24.112 17.2287 22.5698 18.7709 20.6674 18.7709C20.2522 18.7709 19.8541 18.6974 19.4854 18.5627C19.2362 18.4717 18.9452 18.6419 18.9452 18.9072V25.4878H13.0535C12.7882 25.4878 12.618 25.1967 12.709 24.9475C12.8437 24.5789 12.9171 24.1808 12.9171 23.7655C12.9171 21.8631 11.375 20.3209 9.47258 20.3209C7.57019 20.3209 6.028 21.8631 6.028 23.7655C6.028 24.1808 6.10149 24.5789 6.23616 24.9475C6.32719 25.1967 6.15692 25.4878 5.89163 25.4878H1.37783C0.616875 25.4878 0 24.8709 0 24.1099V6.54262C0 5.78167 0.616875 5.16479 1.37783 5.16479H5.89163C6.15692 5.16479 6.32719 5.45589 6.23616 5.70507C6.10149 6.07372 6.028 6.47182 6.028 6.88708C6.028 8.78947 7.57019 10.3317 9.47258 10.3317Z" fill="black"/>
<path fill-rule="evenodd" clip-rule="evenodd" d="M20.6698 11.8837C22.5722 11.8837 24.1144 13.4259 24.1144 15.3283C24.1144 17.2306 22.5722 18.7728 20.6698 18.7728C20.2545 18.7728 19.8564 18.6993 19.4878 18.5647C19.2386 18.4736 18.9475 18.6439 18.9475 18.9092L18.9475 25.4897L37.8927 25.4897C38.6536 25.4897 39.2705 24.8729 39.2705 24.1119L39.2705 18.9092C39.2705 18.6439 38.9794 18.4736 38.7302 18.5647C38.3616 18.6993 37.9635 18.7728 37.5482 18.7728C35.6458 18.7728 34.1036 17.2306 34.1036 15.3283C34.1036 13.4259 35.6458 11.8837 37.5482 11.8837C37.9635 11.8837 38.3616 11.9572 38.7302 12.0918C38.9794 12.1829 39.2705 12.0126 39.2705 11.7473L39.2705 6.54459C39.2705 5.78364 38.6536 5.16676 37.8927 5.16676L32.6899 5.16676C32.4247 5.16676 32.2544 4.87567 32.3454 4.62648C32.4801 4.25784 32.5536 3.85974 32.5536 3.44448C32.5536 1.54209 31.0114 -9.58948e-05 29.109 -9.58116e-05C27.2066 -9.57284e-05 25.6644 1.54209 25.6644 3.44448C25.6644 3.85974 25.7379 4.25784 25.8726 4.62648C25.9636 4.87567 25.7933 5.16676 25.5281 5.16676L18.9475 5.16677L18.9475 11.7473C18.9475 12.0126 19.2386 12.1829 19.4878 12.0918C19.8564 11.9572 20.2545 11.8837 20.6698 11.8837Z" fill="black"/>
<path d="M50.2632 22.9397V6.07273H52.1908L59.2027 17.6145H57.9497L64.9615 6.07273H66.8892V22.9397H64.1182V10.9401L64.7447 11.1087L59.54 19.6627H57.6124L52.4077 11.1087L53.0342 10.9401V22.9397H50.2632Z" fill="black"/>
<path d="M75.0286 23.1806C73.9845 23.1806 73.0367 22.9156 72.1853 22.3855C71.35 21.8554 70.6834 21.1405 70.1854 20.241C69.7035 19.3253 69.4625 18.3053 69.4625 17.1808C69.4625 16.0403 69.7035 15.0203 70.1854 14.1207C70.6834 13.205 71.35 12.4822 72.1853 11.9521C73.0367 11.4059 73.9845 11.1328 75.0286 11.1328C75.9121 11.1328 76.6912 11.3256 77.3659 11.7111C78.0566 12.0806 78.6028 12.5946 79.0044 13.2532C79.406 13.9118 79.6068 14.6588 79.6068 15.4941V18.8193C79.6068 19.6546 79.406 20.4016 79.0044 21.0602C78.6189 21.7188 78.0807 22.2409 77.39 22.6264C76.6992 22.9959 75.9121 23.1806 75.0286 23.1806ZM75.4623 20.6747C76.4422 20.6747 77.2293 20.3454 77.8237 19.6868C78.4341 19.0282 78.7393 18.1848 78.7393 17.1567C78.7393 16.466 78.6028 15.8556 78.3297 15.3255C78.0566 14.7954 77.6711 14.3857 77.1731 14.0966C76.6912 13.7914 76.1209 13.6388 75.4623 13.6388C74.8198 13.6388 74.2495 13.7914 73.7515 14.0966C73.2696 14.3857 72.8841 14.7954 72.5949 15.3255C72.3219 15.8556 72.1853 16.466 72.1853 17.1567C72.1853 17.8475 72.3219 18.4579 72.5949 18.988C72.8841 19.5181 73.2696 19.9358 73.7515 20.241C74.2495 20.5301 74.8198 20.6747 75.4623 20.6747ZM78.5707 22.9397V19.8313L79.0285 17.0122L78.5707 14.2171V11.3738H81.2212V22.9397H78.5707Z" fill="black"/>
<path d="M85.9217 22.9397V6.55465H88.5722V22.9397H85.9217ZM83.1507 13.7833V11.3738H91.3432V13.7833H83.1507Z" fill="black"/>
<path d="M98.2649 23.1806C97.1244 23.1806 96.0883 22.9156 95.1566 22.3855C94.2409 21.8554 93.5181 21.1325 92.988 20.2169C92.4578 19.3012 92.1928 18.2812 92.1928 17.1567C92.1928 16.0162 92.4578 14.9962 92.988 14.0966C93.5181 13.1809 94.2409 12.4581 95.1566 11.928C96.0883 11.3979 97.1244 11.1328 98.2649 11.1328C99.1645 11.1328 99.9998 11.3095 100.771 11.6629C101.558 12.0003 102.225 12.4902 102.771 13.1328L101.036 14.8917C100.699 14.4901 100.289 14.193 99.807 14.0002C99.3412 13.7914 98.8271 13.687 98.2649 13.687C97.6063 13.687 97.02 13.8396 96.5059 14.1448C96.0079 14.4339 95.6144 14.8355 95.3252 15.3496C95.0521 15.8636 94.9156 16.466 94.9156 17.1567C94.9156 17.8314 95.0521 18.4338 95.3252 18.9639C95.6144 19.4779 96.0079 19.8876 96.5059 20.1928C97.02 20.4819 97.6063 20.6265 98.2649 20.6265C98.8271 20.6265 99.3412 20.5301 99.807 20.3374C100.289 20.1285 100.699 19.8233 101.036 19.4217L102.771 21.1807C102.225 21.8233 101.558 22.3212 100.771 22.6746C99.9998 23.012 99.1645 23.1806 98.2649 23.1806Z" fill="black"/>
<path d="M112.609 22.9397V16.2652C112.609 15.4941 112.36 14.8596 111.862 14.3616C111.38 13.8637 110.754 13.6147 109.983 13.6147C109.469 13.6147 109.011 13.7271 108.609 13.952C108.208 14.1769 107.894 14.4901 107.67 14.8917C107.445 15.2933 107.332 15.7512 107.332 16.2652L106.296 15.6869C106.296 14.8034 106.489 14.0243 106.874 13.3496C107.26 12.6589 107.79 12.1207 108.465 11.7352C109.155 11.3336 109.927 11.1328 110.778 11.1328C111.645 11.1328 112.416 11.3256 113.091 11.7111C113.766 12.0966 114.296 12.6348 114.681 13.3255C115.067 14.0002 115.26 14.7873 115.26 15.6869V22.9397H112.609ZM104.682 22.9397V5.59082H107.332V22.9397H104.682Z" fill="black"/>
<path d="M117.977 22.9397V11.3738H120.628V22.9397H117.977ZM119.302 9.25336C118.853 9.25336 118.475 9.10075 118.17 8.79554C117.881 8.49033 117.736 8.11283 117.736 7.66305C117.736 7.21326 117.881 6.83576 118.17 6.53055C118.475 6.22534 118.853 6.07273 119.302 6.07273C119.768 6.07273 120.146 6.22534 120.435 6.53055C120.724 6.83576 120.869 7.21326 120.869 7.66305C120.869 8.11283 120.724 8.49033 120.435 8.79554C120.146 9.10075 119.768 9.25336 119.302 9.25336Z" fill="black"/>
<path d="M131.528 22.9397V16.2652C131.528 15.4941 131.279 14.8596 130.781 14.3616C130.299 13.8637 129.673 13.6147 128.902 13.6147C128.388 13.6147 127.93 13.7271 127.528 13.952C127.127 14.1769 126.813 14.4901 126.588 14.8917C126.363 15.2933 126.251 15.7512 126.251 16.2652L125.215 15.6869C125.215 14.8034 125.408 14.0243 125.793 13.3496C126.179 12.6589 126.709 12.1207 127.384 11.7352C128.074 11.3336 128.845 11.1328 129.697 11.1328C130.564 11.1328 131.335 11.3577 132.01 11.8075C132.685 12.2412 133.215 12.8115 133.6 13.5183C133.986 14.209 134.179 14.9319 134.179 15.6869V22.9397H131.528ZM123.601 22.9397V11.3738H126.251V22.9397H123.601Z" fill="black"/>
<path d="M141.691 27.9998C140.47 27.9998 139.402 27.7749 138.486 27.3251C137.571 26.8914 136.832 26.2729 136.27 25.4697L138.004 23.7348C138.47 24.3131 139 24.7469 139.595 25.036C140.189 25.3252 140.904 25.4697 141.739 25.4697C142.783 25.4697 143.611 25.1966 144.221 24.6505C144.832 24.1204 145.137 23.3895 145.137 22.4578V19.6145L145.595 17.0603L145.137 14.4821V11.3738H147.787V22.4578C147.787 23.5662 147.53 24.53 147.016 25.3493C146.502 26.1846 145.787 26.8351 144.872 27.301C143.956 27.7668 142.896 27.9998 141.691 27.9998ZM141.571 22.6987C140.543 22.6987 139.611 22.4497 138.776 21.9518C137.956 21.4377 137.306 20.7389 136.824 19.8554C136.358 18.9719 136.125 17.984 136.125 16.8917C136.125 15.7993 136.358 14.8195 136.824 13.952C137.306 13.0846 137.956 12.4019 138.776 11.9039C139.611 11.3898 140.543 11.1328 141.571 11.1328C142.486 11.1328 143.289 11.3176 143.98 11.687C144.671 12.0565 145.209 12.5705 145.595 13.2291C145.98 13.8717 146.173 14.6267 146.173 15.4941V18.3374C146.173 19.1888 145.972 19.9438 145.57 20.6024C145.185 21.261 144.647 21.7751 143.956 22.1445C143.265 22.514 142.47 22.6987 141.571 22.6987ZM142.101 20.1928C142.743 20.1928 143.305 20.0562 143.787 19.7832C144.269 19.5101 144.639 19.1326 144.896 18.6507C145.169 18.1527 145.305 17.5744 145.305 16.9158C145.305 16.2572 145.169 15.6869 144.896 15.205C144.639 14.707 144.269 14.3215 143.787 14.0484C143.305 13.7753 142.743 13.6388 142.101 13.6388C141.458 13.6388 140.888 13.7753 140.39 14.0484C139.908 14.3215 139.531 14.707 139.257 15.205C138.984 15.6869 138.848 16.2572 138.848 16.9158C138.848 17.5583 138.984 18.1286 139.257 18.6266C139.531 19.1245 139.908 19.5101 140.39 19.7832C140.888 20.0562 141.458 20.1928 142.101 20.1928Z" fill="black"/>
<path d="M157.82 16.5784V14.1689H162.037C162.616 14.1689 163.122 14.0564 163.555 13.8315C164.005 13.5906 164.358 13.2613 164.615 12.8436C164.872 12.4099 165.001 11.9039 165.001 11.3256C165.001 10.7473 164.872 10.2493 164.615 9.83165C164.358 9.39793 164.005 9.06862 163.555 8.84373C163.122 8.60278 162.616 8.4823 162.037 8.4823H157.82V6.07273H162.182C163.242 6.07273 164.19 6.28959 165.025 6.72332C165.876 7.15704 166.543 7.76746 167.025 8.55458C167.523 9.34171 167.772 10.2654 167.772 11.3256C167.772 12.3858 167.523 13.3095 167.025 14.0966C166.543 14.8837 165.876 15.4941 165.025 15.9279C164.19 16.3616 163.242 16.5784 162.182 16.5784H157.82ZM155.917 22.9397V6.07273H158.688V22.9397H155.917Z" fill="black"/>
<path d="M170.098 22.9397V11.3738H172.748V22.9397H170.098ZM172.748 16.5061L171.832 16.0483C171.832 14.5865 172.154 13.4058 172.796 12.5063C173.455 11.5906 174.443 11.1328 175.76 11.1328C176.338 11.1328 176.86 11.2372 177.326 11.4461C177.792 11.6549 178.226 11.9922 178.627 12.4581L176.893 14.2412C176.684 14.0163 176.451 13.8556 176.194 13.7592C175.937 13.6629 175.64 13.6147 175.302 13.6147C174.563 13.6147 173.953 13.8476 173.471 14.3134C172.989 14.7793 172.748 15.5102 172.748 16.5061Z" fill="black"/>
<path d="M184.858 23.1806C183.734 23.1806 182.714 22.9156 181.798 22.3855C180.882 21.8393 180.151 21.1084 179.605 20.1928C179.075 19.2771 178.81 18.2571 178.81 17.1326C178.81 16.0082 179.075 14.9962 179.605 14.0966C180.151 13.197 180.882 12.4822 181.798 11.9521C182.714 11.4059 183.734 11.1328 184.858 11.1328C185.999 11.1328 187.027 11.3979 187.942 11.928C188.858 12.4581 189.581 13.1809 190.111 14.0966C190.657 14.9962 190.93 16.0082 190.93 17.1326C190.93 18.2571 190.657 19.2771 190.111 20.1928C189.581 21.1084 188.858 21.8393 187.942 22.3855C187.027 22.9156 185.999 23.1806 184.858 23.1806ZM184.858 20.6265C185.517 20.6265 186.095 20.4819 186.593 20.1928C187.107 19.8876 187.501 19.4699 187.774 18.9398C188.063 18.4097 188.207 17.8073 188.207 17.1326C188.207 16.458 188.063 15.8636 187.774 15.3496C187.484 14.8355 187.091 14.4339 186.593 14.1448C186.095 13.8396 185.517 13.687 184.858 13.687C184.215 13.687 183.637 13.8396 183.123 14.1448C182.625 14.4339 182.232 14.8355 181.942 15.3496C181.669 15.8636 181.533 16.458 181.533 17.1326C181.533 17.8073 181.669 18.4097 181.942 18.9398C182.232 19.4699 182.625 19.8876 183.123 20.1928C183.637 20.4819 184.215 20.6265 184.858 20.6265Z" fill="black"/>
<path d="M194.564 22.9397V6.55465H197.214V22.9397H194.564ZM191.793 13.7833V11.3738H199.985V13.7833H191.793Z" fill="black"/>
<path d="M206.883 23.1806C205.758 23.1806 204.738 22.9156 203.823 22.3855C202.907 21.8393 202.176 21.1084 201.63 20.1928C201.1 19.2771 200.835 18.2571 200.835 17.1326C200.835 16.0082 201.1 14.9962 201.63 14.0966C202.176 13.197 202.907 12.4822 203.823 11.9521C204.738 11.4059 205.758 11.1328 206.883 11.1328C208.023 11.1328 209.052 11.3979 209.967 11.928C210.883 12.4581 211.606 13.1809 212.136 14.0966C212.682 14.9962 212.955 16.0082 212.955 17.1326C212.955 18.2571 212.682 19.2771 212.136 20.1928C211.606 21.1084 210.883 21.8393 209.967 22.3855C209.052 22.9156 208.023 23.1806 206.883 23.1806ZM206.883 20.6265C207.542 20.6265 208.12 20.4819 208.618 20.1928C209.132 19.8876 209.525 19.4699 209.799 18.9398C210.088 18.4097 210.232 17.8073 210.232 17.1326C210.232 16.458 210.088 15.8636 209.799 15.3496C209.509 14.8355 209.116 14.4339 208.618 14.1448C208.12 13.8396 207.542 13.687 206.883 13.687C206.24 13.687 205.662 13.8396 205.148 14.1448C204.65 14.4339 204.257 14.8355 203.967 15.3496C203.694 15.8636 203.558 16.458 203.558 17.1326C203.558 17.8073 203.694 18.4097 203.967 18.9398C204.257 19.4699 204.65 19.8876 205.148 20.1928C205.662 20.4819 206.24 20.6265 206.883 20.6265Z" fill="black"/>
<path d="M220.484 23.1806C219.344 23.1806 218.308 22.9156 217.376 22.3855C216.46 21.8554 215.738 21.1325 215.207 20.2169C214.677 19.3012 214.412 18.2812 214.412 17.1567C214.412 16.0162 214.677 14.9962 215.207 14.0966C215.738 13.1809 216.46 12.4581 217.376 11.928C218.308 11.3979 219.344 11.1328 220.484 11.1328C221.384 11.1328 222.219 11.3095 222.99 11.6629C223.777 12.0003 224.444 12.4902 224.99 13.1328L223.255 14.8917C222.918 14.4901 222.508 14.193 222.027 14.0002C221.561 13.7914 221.047 13.687 220.484 13.687C219.826 13.687 219.239 13.8396 218.725 14.1448C218.227 14.4339 217.834 14.8355 217.545 15.3496C217.272 15.8636 217.135 16.466 217.135 17.1567C217.135 17.8314 217.272 18.4338 217.545 18.9639C217.834 19.4779 218.227 19.8876 218.725 20.1928C219.239 20.4819 219.826 20.6265 220.484 20.6265C221.047 20.6265 221.561 20.5301 222.027 20.3374C222.508 20.1285 222.918 19.8233 223.255 19.4217L224.99 21.1807C224.444 21.8233 223.777 22.3212 222.99 22.6746C222.219 23.012 221.384 23.1806 220.484 23.1806Z" fill="black"/>
<path d="M231.967 23.1806C230.842 23.1806 229.822 22.9156 228.907 22.3855C227.991 21.8393 227.26 21.1084 226.714 20.1928C226.184 19.2771 225.919 18.2571 225.919 17.1326C225.919 16.0082 226.184 14.9962 226.714 14.0966C227.26 13.197 227.991 12.4822 228.907 11.9521C229.822 11.4059 230.842 11.1328 231.967 11.1328C233.107 11.1328 234.136 11.3979 235.051 11.928C235.967 12.4581 236.69 13.1809 237.22 14.0966C237.766 14.9962 238.039 16.0082 238.039 17.1326C238.039 18.2571 237.766 19.2771 237.22 20.1928C236.69 21.1084 235.967 21.8393 235.051 22.3855C234.136 22.9156 233.107 23.1806 231.967 23.1806ZM231.967 20.6265C232.626 20.6265 233.204 20.4819 233.702 20.1928C234.216 19.8876 234.609 19.4699 234.882 18.9398C235.172 18.4097 235.316 17.8073 235.316 17.1326C235.316 16.458 235.172 15.8636 234.882 15.3496C234.593 14.8355 234.2 14.4339 233.702 14.1448C233.204 13.8396 232.626 13.687 231.967 13.687C231.324 13.687 230.746 13.8396 230.232 14.1448C229.734 14.4339 229.34 14.8355 229.051 15.3496C228.778 15.8636 228.642 16.458 228.642 17.1326C228.642 17.8073 228.778 18.4097 229.051 18.9398C229.34 19.4699 229.734 19.8876 230.232 20.1928C230.746 20.4819 231.324 20.6265 231.967 20.6265Z" fill="black"/>
<path d="M240.243 22.9397V5.59082H242.894V22.9397H240.243Z" fill="black"/>
</svg>
